<?xml version="1.0" encoding="UTF-8"?>
<svg xmlns="http://www.w3.org/2000/svg" xmlns:xlink="http://www.w3.org/1999/xlink" width="50px" height="50px" viewBox="0 0 50 50" version="1.1">
<g id="surface1">
<path style=" stroke:none;fill-rule:nonzero;fill:rgb(0%,0%,0%);fill-opacity:1;" d="M 49.28125 25.222656 L 44.632812 25.222656 L 47.726562 20.449219 C 47.945312 20.117188 47.847656 19.671875 47.515625 19.457031 C 47.183594 19.238281 46.738281 19.335938 46.523438 19.667969 L 42.917969 25.222656 L 35.164062 25.222656 C 34.859375 18.175781 30.097656 12.558594 24.285156 12.558594 C 19.121094 12.558594 14.703125 17.015625 13.636719 23.109375 C 10.519531 20.902344 8.304688 18.183594 7.820312 15.875 C 7.707031 15.328125 7.277344 14.917969 6.722656 14.824219 C 6.179688 14.734375 5.648438 14.976562 5.359375 15.441406 C 5.347656 15.460938 5.335938 15.480469 5.328125 15.496094 C 4.335938 17.183594 4.046875 19.226562 4.464844 21.332031 C 3.945312 20.792969 3.53125 20.238281 3.246094 19.679688 C 2.992188 19.179688 2.46875 18.894531 1.910156 18.949219 C 1.355469 19.007812 0.898438 19.386719 0.75 19.925781 L 0.746094 19.941406 C -0.105469 23.019531 1.070312 26.347656 3.738281 28.953125 C 3.160156 28.679688 2.648438 28.363281 2.230469 28.007812 C 1.800781 27.640625 1.199219 27.578125 0.703125 27.84375 C 0.21875 28.105469 -0.0546875 28.625 0.0078125 29.175781 L 0.0117188 29.203125 C 0.34375 31.839844 2.019531 34.132812 4.738281 35.660156 C 6.820312 36.832031 9.328125 37.441406 11.960938 37.441406 C 12.671875 37.441406 13.394531 37.398438 14.121094 37.304688 C 15.871094 37.085938 17.464844 36.691406 18.871094 36.144531 C 20.457031 36.992188 22.320312 37.441406 24.285156 37.441406 C 27.175781 37.441406 29.777344 36.488281 31.695312 34.738281 C 33.570312 36.464844 36.113281 37.441406 39.105469 37.441406 C 45.621094 37.441406 50 32.820312 50 25.941406 C 50 25.542969 49.679688 25.222656 49.28125 25.222656 Z M 22.242188 14.75 C 22.242188 14.804688 22.023438 15.027344 21.578125 15.027344 C 21.191406 15.027344 20.972656 14.855469 20.925781 14.777344 C 21.15625 14.667969 21.390625 14.566406 21.632812 14.476562 C 22.039062 14.496094 22.242188 14.699219 22.242188 14.75 Z M 6.46875 16.398438 C 7.222656 19.464844 10.296875 22.898438 14.558594 25.414062 C 15.199219 25.796875 15.855469 26.144531 16.515625 26.460938 C 15.25 26.339844 13.933594 26.097656 12.625 25.738281 C 10.289062 25.09375 8.164062 24.128906 6.492188 23.003906 C 5.449219 20.613281 5.441406 18.285156 6.46875 16.398438 Z M 2.078125 20.535156 C 3.605469 23.296875 7.46875 25.808594 12.242188 27.125 C 15.058594 27.898438 17.855469 28.15625 20.238281 27.898438 C 18.320312 28.921875 15.863281 29.671875 13.207031 30.003906 C 11.21875 30.25 9.277344 30.242188 7.550781 30.007812 C 3.445312 27.691406 1.273438 23.925781 2.078125 20.535156 Z M 13.941406 35.878906 C 13.273438 35.964844 12.613281 36.003906 11.96875 36.003906 C 6.589844 36.003906 2.113281 33.214844 1.472656 29.242188 C 3.40625 30.78125 6.605469 31.628906 10.261719 31.628906 C 11.273438 31.628906 12.320312 31.5625 13.386719 31.429688 C 17.640625 30.898438 21.46875 29.332031 23.628906 27.238281 C 23.722656 27.148438 23.789062 27.035156 23.820312 26.914062 L 24.734375 23.601562 C 24.75 23.550781 24.78125 23.523438 24.804688 23.511719 C 24.832031 23.496094 24.871094 23.484375 24.921875 23.496094 C 24.96875 23.511719 24.996094 23.542969 25.011719 23.566406 C 25.027344 23.59375 25.039062 23.632812 25.027344 23.683594 L 24.113281 26.992188 C 24.089844 27.082031 24.082031 27.175781 24.09375 27.265625 C 24.59375 31.597656 20.511719 35.058594 13.941406 35.878906 Z M 20.59375 35.351562 C 24 33.5 25.863281 30.605469 25.535156 27.246094 L 26.410156 24.066406 C 26.523438 23.65625 26.472656 23.226562 26.261719 22.859375 C 26.050781 22.488281 25.710938 22.222656 25.300781 22.109375 C 24.894531 22 24.464844 22.050781 24.09375 22.261719 C 23.726562 22.46875 23.460938 22.8125 23.347656 23.21875 L 22.609375 25.90625 C 21.960938 26.144531 21.230469 26.316406 20.4375 26.421875 C 18.742188 25.941406 16.96875 25.167969 15.289062 24.179688 C 15.179688 24.113281 15.066406 24.046875 14.960938 23.980469 C 15.441406 20.308594 17.238281 17.238281 19.691406 15.507812 C 20.027344 16.078125 20.738281 16.464844 21.578125 16.464844 C 22.757812 16.464844 23.679688 15.710938 23.679688 14.75 C 23.679688 14.496094 23.613281 14.253906 23.496094 14.039062 C 23.757812 14.011719 24.019531 13.996094 24.285156 13.996094 C 29.308594 13.996094 33.429688 18.96875 33.726562 25.222656 L 28.933594 25.222656 C 28.535156 25.222656 28.214844 25.542969 28.214844 25.941406 C 28.214844 29.0625 29.113281 31.71875 30.707031 33.691406 C 29.054688 35.183594 26.804688 36.003906 24.285156 36.003906 C 22.976562 36.003906 21.726562 35.78125 20.59375 35.351562 Z M 45.796875 33.441406 C 44.125 35.09375 41.75 36.003906 39.105469 36.003906 C 36.460938 36.003906 34.085938 35.09375 32.417969 33.441406 C 30.75 31.792969 29.804688 29.457031 29.667969 26.660156 L 48.546875 26.660156 C 48.40625 29.457031 47.464844 31.792969 45.796875 33.441406 Z M 45.796875 33.441406 "/>
<path style=" stroke:none;fill-rule:nonzero;fill:rgb(0%,0%,0%);fill-opacity:1;" d="M 25.882812 14.9375 C 24.703125 14.9375 23.78125 15.691406 23.78125 16.652344 C 23.78125 17.613281 24.703125 18.367188 25.882812 18.367188 C 27.058594 18.367188 27.984375 17.613281 27.984375 16.652344 C 27.984375 15.691406 27.058594 14.9375 25.882812 14.9375 Z M 25.882812 16.925781 C 25.441406 16.925781 25.21875 16.703125 25.21875 16.652344 C 25.21875 16.597656 25.441406 16.375 25.882812 16.375 C 26.324219 16.375 26.546875 16.597656 26.546875 16.652344 C 26.546875 16.703125 26.324219 16.925781 25.882812 16.925781 Z M 25.882812 16.925781 "/>
</g>
</svg>
