<?xml version="1.0" encoding="UTF-8"?>
<svg xmlns="http://www.w3.org/2000/svg" xmlns:xlink="http://www.w3.org/1999/xlink" width="40px" height="40px" viewBox="0 0 40 40" version="1.1">
<g id="surface1">
<path style=" stroke:none;fill-rule:nonzero;fill:rgb(0%,0%,0%);fill-opacity:1;" d="M 39.425781 20.179688 L 35.707031 20.179688 L 38.179688 16.359375 C 38.355469 16.09375 38.277344 15.738281 38.011719 15.566406 C 37.746094 15.390625 37.390625 15.46875 37.21875 15.734375 L 34.335938 20.179688 L 28.132812 20.179688 C 27.886719 14.539062 24.078125 10.046875 19.429688 10.046875 C 15.296875 10.046875 11.761719 13.613281 10.910156 18.488281 C 8.414062 16.722656 6.644531 14.546875 6.257812 12.699219 C 6.164062 12.261719 5.820312 11.933594 5.378906 11.859375 C 4.945312 11.789062 4.519531 11.980469 4.289062 12.351562 C 4.277344 12.367188 4.269531 12.382812 4.261719 12.398438 C 3.46875 13.746094 3.238281 15.382812 3.570312 17.066406 C 3.15625 16.632812 2.824219 16.191406 2.597656 15.742188 C 2.394531 15.34375 1.976562 15.117188 1.527344 15.160156 C 1.085938 15.207031 0.71875 15.507812 0.601562 15.941406 L 0.597656 15.953125 C -0.0859375 18.414062 0.855469 21.078125 2.992188 23.164062 C 2.527344 22.945312 2.117188 22.691406 1.785156 22.40625 C 1.441406 22.113281 0.960938 22.0625 0.5625 22.273438 C 0.175781 22.484375 -0.0429688 22.898438 0.0078125 23.339844 L 0.0078125 23.363281 C 0.273438 25.472656 1.617188 27.304688 3.789062 28.527344 C 5.457031 29.464844 7.460938 29.953125 9.570312 29.953125 C 10.136719 29.953125 10.714844 29.917969 11.296875 29.84375 C 12.695312 29.667969 13.972656 29.351562 15.097656 28.914062 C 16.367188 29.59375 17.855469 29.953125 19.429688 29.953125 C 21.742188 29.953125 23.820312 29.191406 25.355469 27.789062 C 26.855469 29.171875 28.890625 29.953125 31.285156 29.953125 C 36.496094 29.953125 40 26.257812 40 20.753906 C 40 20.433594 39.742188 20.179688 39.425781 20.179688 Z M 17.792969 11.800781 C 17.792969 11.84375 17.617188 12.023438 17.261719 12.023438 C 16.953125 12.023438 16.777344 11.882812 16.742188 11.820312 C 16.925781 11.734375 17.113281 11.652344 17.304688 11.582031 C 17.632812 11.597656 17.792969 11.757812 17.792969 11.800781 Z M 5.175781 13.117188 C 5.777344 15.570312 8.238281 18.320312 11.648438 20.332031 C 12.160156 20.636719 12.683594 20.914062 13.210938 21.167969 C 12.199219 21.070312 11.148438 20.878906 10.101562 20.589844 C 8.230469 20.074219 6.53125 19.304688 5.195312 18.402344 C 4.359375 16.492188 4.351562 14.628906 5.175781 13.117188 Z M 1.664062 16.429688 C 2.882812 18.636719 5.976562 20.648438 9.792969 21.699219 C 12.046875 22.320312 14.285156 22.523438 16.191406 22.320312 C 14.65625 23.136719 12.691406 23.738281 10.566406 24.003906 C 8.976562 24.199219 7.421875 24.195312 6.039062 24.007812 C 2.757812 22.152344 1.019531 19.140625 1.664062 16.429688 Z M 11.152344 28.703125 C 10.617188 28.773438 10.089844 28.804688 9.574219 28.804688 C 5.273438 28.804688 1.691406 26.570312 1.179688 23.394531 C 2.726562 24.625 5.285156 25.304688 8.210938 25.304688 C 9.019531 25.304688 9.855469 25.25 10.710938 25.144531 C 14.113281 24.71875 17.175781 23.464844 18.902344 21.789062 C 18.976562 21.71875 19.03125 21.628906 19.054688 21.53125 L 19.789062 18.882812 C 19.800781 18.839844 19.824219 18.820312 19.84375 18.808594 C 19.867188 18.796875 19.898438 18.789062 19.9375 18.796875 C 19.976562 18.808594 19.996094 18.835938 20.007812 18.851562 C 20.023438 18.875 20.03125 18.90625 20.023438 18.945312 L 19.289062 21.59375 C 19.273438 21.664062 19.265625 21.742188 19.273438 21.8125 C 19.675781 25.277344 16.410156 28.046875 11.152344 28.703125 Z M 16.476562 28.28125 C 19.199219 26.800781 20.691406 24.484375 20.429688 21.796875 L 21.128906 19.253906 C 21.21875 18.925781 21.179688 18.582031 21.007812 18.289062 C 20.839844 17.992188 20.570312 17.777344 20.242188 17.6875 C 19.914062 17.601562 19.570312 17.640625 19.273438 17.808594 C 18.980469 17.976562 18.769531 18.25 18.679688 18.574219 L 18.085938 20.726562 C 17.570312 20.914062 16.984375 21.054688 16.351562 21.136719 C 14.992188 20.753906 13.574219 20.132812 12.230469 19.34375 C 12.144531 19.289062 12.054688 19.238281 11.96875 19.183594 C 12.351562 16.246094 13.789062 13.789062 15.753906 12.40625 C 16.023438 12.863281 16.589844 13.171875 17.261719 13.171875 C 18.207031 13.171875 18.945312 12.570312 18.945312 11.800781 C 18.945312 11.597656 18.890625 11.402344 18.796875 11.230469 C 19.007812 11.210938 19.214844 11.195312 19.429688 11.195312 C 23.445312 11.195312 26.742188 15.175781 26.980469 20.179688 L 23.148438 20.179688 C 22.828125 20.179688 22.570312 20.433594 22.570312 20.753906 C 22.570312 23.25 23.289062 25.375 24.566406 26.953125 C 23.242188 28.148438 21.445312 28.804688 19.429688 28.804688 C 18.382812 28.804688 17.382812 28.625 16.476562 28.28125 Z M 36.636719 26.753906 C 35.300781 28.074219 33.398438 28.804688 31.285156 28.804688 C 29.167969 28.804688 27.269531 28.074219 25.933594 26.753906 C 24.601562 25.433594 23.84375 23.566406 23.734375 21.328125 L 38.835938 21.328125 C 38.726562 23.566406 37.972656 25.433594 36.636719 26.753906 Z M 36.636719 26.753906 "/>
<path style=" stroke:none;fill-rule:nonzero;fill:rgb(0%,0%,0%);fill-opacity:1;" d="M 20.707031 11.949219 C 19.761719 11.949219 19.023438 12.554688 19.023438 13.320312 C 19.023438 14.089844 19.761719 14.695312 20.707031 14.695312 C 21.648438 14.695312 22.386719 14.089844 22.386719 13.320312 C 22.386719 12.554688 21.648438 11.949219 20.707031 11.949219 Z M 20.707031 13.539062 C 20.351562 13.539062 20.175781 13.363281 20.175781 13.320312 C 20.175781 13.277344 20.351562 13.101562 20.707031 13.101562 C 21.058594 13.101562 21.238281 13.277344 21.238281 13.320312 C 21.238281 13.363281 21.058594 13.539062 20.707031 13.539062 Z M 20.707031 13.539062 "/>
</g>
</svg>
