<?xml version="1.0" encoding="UTF-8"?>
<svg xmlns="http://www.w3.org/2000/svg" xmlns:xlink="http://www.w3.org/1999/xlink" width="40px" height="40px" viewBox="0 0 40 40" version="1.1">
<g id="surface1">
<path style=" stroke:none;fill-rule:nonzero;fill:rgb(0%,0%,0%);fill-opacity:1;" d="M 38.210938 29.347656 L 32.355469 23.496094 C 33.203125 21.460938 33.640625 19.269531 33.640625 17.042969 C 33.640625 7.769531 26.097656 0.222656 16.820312 0.222656 C 7.546875 0.222656 0 7.769531 0 17.042969 C 0 26.320312 7.546875 33.867188 16.820312 33.867188 C 19.289062 33.867188 21.691406 33.332031 23.894531 32.308594 L 29.570312 37.988281 C 30.726562 39.140625 32.257812 39.777344 33.890625 39.777344 C 35.523438 39.777344 37.058594 39.140625 38.210938 37.984375 C 39.363281 36.832031 40 35.300781 40 33.667969 C 40 32.035156 39.363281 30.5 38.210938 29.347656 Z M 35.785156 35.5625 C 35.261719 36.085938 34.578125 36.347656 33.890625 36.347656 C 33.207031 36.347656 32.519531 36.085938 31.996094 35.5625 L 24.46875 28.035156 C 22.300781 29.546875 19.664062 30.433594 16.820312 30.433594 C 9.425781 30.433594 3.429688 24.441406 3.429688 17.042969 C 3.429688 9.648438 9.425781 3.652344 16.820312 3.652344 C 24.214844 3.652344 30.210938 9.648438 30.210938 17.042969 C 30.210938 19.65625 29.460938 22.09375 28.164062 24.15625 L 35.785156 31.773438 C 36.832031 32.820312 36.832031 34.515625 35.785156 35.5625 Z M 35.785156 35.5625 "/>
<path style=" stroke:none;fill-rule:nonzero;fill:rgb(0%,0%,0%);fill-opacity:1;" d="M 16.820312 7.46875 C 11.539062 7.46875 7.246094 11.765625 7.246094 17.042969 C 7.246094 22.324219 11.539062 26.621094 16.820312 26.621094 C 22.101562 26.621094 26.398438 22.324219 26.398438 17.042969 C 26.398438 11.765625 22.101562 7.46875 16.820312 7.46875 Z M 16.820312 23.191406 C 13.433594 23.191406 10.675781 20.433594 10.675781 17.042969 C 10.675781 13.65625 13.433594 10.898438 16.820312 10.898438 C 20.210938 10.898438 22.96875 13.65625 22.96875 17.042969 C 22.96875 20.433594 20.210938 23.191406 16.820312 23.191406 Z M 16.820312 23.191406 "/>
</g>
</svg>
