<?xml version="1.0" encoding="UTF-8"?>
<svg xmlns="http://www.w3.org/2000/svg" xmlns:xlink="http://www.w3.org/1999/xlink" width="40px" height="40px" viewBox="0 0 40 40" version="1.1">
<g id="surface1">
<path style=" stroke:none;fill-rule:nonzero;fill:rgb(0%,0%,0%);fill-opacity:1;" d="M 39.660156 8.347656 C 38.023438 7.070312 35.746094 6.523438 33.566406 6.710938 L 36.023438 4.253906 C 36.382812 3.886719 36.382812 3.34375 36.023438 2.976562 C 35.65625 2.617188 35.109375 2.617188 34.746094 2.976562 L 32.746094 5.070312 C 32.65625 3.523438 31.929688 2.160156 30.5625 1.070312 C 30.199219 0.796875 29.5625 0.886719 29.289062 1.25 C 29.015625 1.617188 29.105469 2.25 29.472656 2.523438 C 30.472656 3.253906 30.929688 4.253906 30.929688 5.34375 C 30.929688 6.253906 30.5625 7.070312 30.109375 7.710938 L 30.015625 7.800781 C 29.105469 7.070312 28.015625 6.617188 26.835938 6.433594 C 23.742188 5.980469 20.554688 7.253906 18.648438 9.710938 L 10.277344 20.261719 C 10.1875 20.351562 10.1875 20.445312 10.097656 20.445312 L 1.089844 31.8125 C 0.363281 32.722656 0 33.90625 0 34.996094 C 0 36.085938 0.457031 37.085938 1.179688 37.90625 C 1.910156 38.632812 3.003906 39.089844 4.09375 39.089844 C 5.183594 39.089844 6.367188 38.726562 7.277344 38 L 29.382812 20.445312 C 31.835938 18.441406 33.109375 15.351562 32.65625 12.257812 C 32.5625 11.804688 32.109375 11.4375 31.652344 11.527344 C 31.199219 11.617188 30.835938 12.074219 30.929688 12.527344 C 31.289062 14.984375 30.289062 17.53125 28.289062 19.078125 L 22.648438 23.535156 C 22.101562 23.261719 21.195312 22.625 20.921875 21.625 C 20.832031 21.171875 20.285156 20.804688 19.828125 20.988281 C 19.375 21.082031 19.007812 21.625 19.195312 22.082031 C 19.554688 23.351562 20.375 24.171875 21.195312 24.71875 L 11.007812 32.722656 C 10.550781 32.449219 9.367188 31.8125 9.097656 30.722656 C 9.007812 30.265625 8.460938 29.902344 8.003906 30.085938 C 7.550781 30.175781 7.183594 30.722656 7.367188 31.179688 C 7.730469 32.539062 8.730469 33.449219 9.550781 33.90625 L 6.183594 36.542969 C 5.09375 37.363281 3.457031 37.542969 2.546875 36.632812 C 2.089844 36.179688 1.820312 35.632812 1.820312 34.996094 C 1.820312 34.269531 2.089844 33.539062 2.546875 32.90625 L 10.734375 22.535156 C 11.734375 23.808594 13.191406 24.351562 13.28125 24.445312 C 13.371094 24.445312 13.460938 24.539062 13.644531 24.539062 C 14.007812 24.539062 14.371094 24.351562 14.460938 23.992188 C 14.644531 23.535156 14.371094 22.992188 13.914062 22.808594 C 13.914062 22.808594 12.460938 22.261719 11.914062 21.082031 L 18.007812 13.441406 C 19.007812 14.710938 20.464844 15.351562 20.554688 15.351562 C 20.648438 15.351562 20.742188 15.441406 20.921875 15.441406 C 21.285156 15.441406 21.648438 15.257812 21.742188 14.894531 C 21.921875 14.441406 21.648438 13.894531 21.195312 13.710938 C 21.195312 13.710938 19.738281 13.074219 19.195312 11.984375 L 20.011719 10.894531 C 21.554688 8.890625 24.101562 7.890625 26.558594 8.253906 C 27.289062 8.347656 28.015625 8.617188 28.652344 9.070312 L 27.46875 10.257812 C 27.105469 10.617188 27.105469 11.164062 27.46875 11.527344 C 27.652344 11.710938 27.925781 11.804688 28.105469 11.804688 C 28.289062 11.804688 28.5625 11.710938 28.742188 11.527344 L 30.5625 9.710938 C 32.5625 8.070312 36.382812 8.070312 38.382812 9.800781 C 38.570312 9.890625 38.75 9.980469 38.929688 9.980469 C 39.203125 9.980469 39.476562 9.890625 39.660156 9.617188 C 40.113281 9.257812 40.113281 8.710938 39.660156 8.347656 Z M 39.660156 8.347656 "/>
</g>
</svg>
