<?xml version="1.0" encoding="UTF-8"?>
<svg xmlns="http://www.w3.org/2000/svg" xmlns:xlink="http://www.w3.org/1999/xlink" width="50px" height="50px" viewBox="0 0 50 50" version="1.1">
<g id="surface1">
<path style=" stroke:none;fill-rule:nonzero;fill:rgb(0%,0%,0%);fill-opacity:1;" d="M 49.574219 10.433594 C 47.527344 8.839844 44.683594 8.15625 41.957031 8.386719 L 45.027344 5.316406 C 45.480469 4.859375 45.480469 4.179688 45.027344 3.722656 C 44.570312 3.269531 43.886719 3.269531 43.433594 3.722656 L 40.933594 6.339844 C 40.820312 4.40625 39.910156 2.699219 38.203125 1.335938 C 37.75 0.996094 36.953125 1.109375 36.613281 1.5625 C 36.269531 2.019531 36.382812 2.8125 36.839844 3.15625 C 38.089844 4.066406 38.660156 5.316406 38.660156 6.679688 C 38.660156 7.816406 38.203125 8.839844 37.636719 9.636719 L 37.519531 9.75 C 36.382812 8.839844 35.019531 8.273438 33.542969 8.042969 C 29.675781 7.476562 25.695312 9.066406 23.308594 12.136719 L 12.847656 25.328125 C 12.734375 25.441406 12.734375 25.554688 12.621094 25.554688 L 1.363281 39.765625 C 0.453125 40.902344 0 42.382812 0 43.746094 C 0 45.109375 0.570312 46.359375 1.476562 47.382812 C 2.386719 48.292969 3.753906 48.863281 5.117188 48.863281 C 6.480469 48.863281 7.960938 48.40625 9.097656 47.5 L 36.726562 25.554688 C 39.796875 23.050781 41.386719 19.1875 40.820312 15.320312 C 40.703125 14.753906 40.136719 14.296875 39.566406 14.410156 C 39 14.523438 38.542969 15.09375 38.660156 15.660156 C 39.113281 18.730469 37.863281 21.914062 35.359375 23.847656 L 28.3125 29.417969 C 27.628906 29.078125 26.492188 28.28125 26.152344 27.03125 C 26.039062 26.464844 25.355469 26.007812 24.785156 26.234375 C 24.21875 26.351562 23.761719 27.03125 23.992188 27.601562 C 24.445312 29.191406 25.46875 30.214844 26.492188 30.898438 L 13.757812 40.902344 C 13.1875 40.5625 11.710938 39.765625 11.371094 38.402344 C 11.257812 37.832031 10.574219 37.378906 10.003906 37.605469 C 9.4375 37.71875 8.980469 38.402344 9.210938 38.972656 C 9.664062 40.675781 10.914062 41.8125 11.9375 42.382812 L 7.730469 45.679688 C 6.367188 46.703125 4.320312 46.929688 3.183594 45.792969 C 2.613281 45.222656 2.273438 44.542969 2.273438 43.746094 C 2.273438 42.835938 2.613281 41.925781 3.183594 41.132812 L 13.417969 28.167969 C 14.667969 29.761719 16.488281 30.441406 16.601562 30.558594 C 16.714844 30.558594 16.828125 30.671875 17.054688 30.671875 C 17.511719 30.671875 17.964844 30.441406 18.078125 29.988281 C 18.304688 29.417969 17.964844 28.738281 17.394531 28.511719 C 17.394531 28.511719 15.578125 27.828125 14.894531 26.351562 L 22.511719 16.800781 C 23.761719 18.390625 25.582031 19.1875 25.695312 19.1875 C 25.808594 19.1875 25.925781 19.300781 26.152344 19.300781 C 26.605469 19.300781 27.0625 19.074219 27.175781 18.617188 C 27.402344 18.050781 27.0625 17.367188 26.492188 17.140625 C 26.492188 17.140625 24.671875 16.34375 23.992188 14.980469 L 25.015625 13.617188 C 26.945312 11.113281 30.128906 9.863281 33.199219 10.316406 C 34.109375 10.433594 35.019531 10.773438 35.816406 11.339844 L 34.335938 12.820312 C 33.882812 13.273438 33.882812 13.957031 34.335938 14.410156 C 34.566406 14.640625 34.90625 14.753906 35.132812 14.753906 C 35.359375 14.753906 35.703125 14.640625 35.929688 14.410156 L 38.203125 12.136719 C 40.703125 10.089844 45.480469 10.089844 47.980469 12.25 C 48.210938 12.363281 48.4375 12.476562 48.664062 12.476562 C 49.003906 12.476562 49.347656 12.363281 49.574219 12.023438 C 50.140625 11.570312 50.140625 10.886719 49.574219 10.433594 Z M 49.574219 10.433594 "/>
</g>
</svg>
